<?xml version="1.0" encoding="utf-8"?>
<!-- Generator: Adobe Illustrator 16.0.0, SVG Export Plug-In . SVG Version: 6.00 Build 0)  -->
<!DOCTYPE svg PUBLIC "-//W3C//DTD SVG 1.1//EN" "http://www.w3.org/Graphics/SVG/1.1/DTD/svg11.dtd">
<svg version="1.1" id="Layer_2" xmlns="http://www.w3.org/2000/svg" xmlns:xlink="http://www.w3.org/1999/xlink" x="0px" y="0px"
	 width="136px" height="128px" viewBox="0 0 136 128" enable-background="new 0 0 136 128" xml:space="preserve">
<g>
	<path d="M90,22c13.233,0,24,10.767,24,24v36c0,13.233-10.767,24-24,24H46c-13.233,0-24-10.767-24-24V46c0-13.233,10.767-24,24-24
		H90 M90,16H46c-16.5,0-30,13.5-30,30v36c0,16.5,13.5,30,30,30h44c16.5,0,30-13.5,30-30V46C120,29.5,106.5,16,90,16L90,16z"/>
</g>
</svg>
