<?xml version="1.0" encoding="utf-8"?>
<!-- Generator: Adobe Illustrator 16.0.0, SVG Export Plug-In . SVG Version: 6.00 Build 0)  -->
<!DOCTYPE svg PUBLIC "-//W3C//DTD SVG 1.1//EN" "http://www.w3.org/Graphics/SVG/1.1/DTD/svg11.dtd">
<svg version="1.1" id="Layer_2" xmlns="http://www.w3.org/2000/svg" xmlns:xlink="http://www.w3.org/1999/xlink" x="0px" y="0px"
	 width="80px" height="80px" viewBox="0 0 80 80" enable-background="new 0 0 80 80" xml:space="preserve">
<g>
	<path d="M56,20c2.168,0,4,1.832,4,4v32c0,2.168-1.832,4-4,4H24c-2.168,0-4-1.832-4-4V24c0-2.168,1.832-4,4-4H56 M56,12H24
		c-6.6,0-12,5.4-12,12v32c0,6.6,5.4,12,12,12h32c6.6,0,12-5.4,12-12V24C68,17.4,62.6,12,56,12L56,12z"/>
</g>
</svg>
