<?xml version="1.0" encoding="utf-8"?>
<!-- Generator: Adobe Illustrator 16.0.0, SVG Export Plug-In . SVG Version: 6.00 Build 0)  -->
<!DOCTYPE svg PUBLIC "-//W3C//DTD SVG 1.1//EN" "http://www.w3.org/Graphics/SVG/1.1/DTD/svg11.dtd">
<svg version="1.1" id="Layer_2" xmlns="http://www.w3.org/2000/svg" xmlns:xlink="http://www.w3.org/1999/xlink" x="0px" y="0px"
	 width="80px" height="80px" viewBox="0 0 80 80" enable-background="new 0 0 80 80" xml:space="preserve">
<g>
	<path d="M57,19c2.168,0,4,1.832,4,4v34c0,2.168-1.832,4-4,4H23c-2.168,0-4-1.832-4-4V23c0-2.168,1.832-4,4-4H57 M57,13H23
		c-5.5,0-10,4.5-10,10v34c0,5.5,4.5,10,10,10h34c5.5,0,10-4.5,10-10V23C67,17.5,62.5,13,57,13L57,13z"/>
</g>
</svg>
