<?xml version="1.0" encoding="utf-8"?>
<!-- Generator: Adobe Illustrator 16.0.0, SVG Export Plug-In . SVG Version: 6.00 Build 0)  -->
<!DOCTYPE svg PUBLIC "-//W3C//DTD SVG 1.1//EN" "http://www.w3.org/Graphics/SVG/1.1/DTD/svg11.dtd">
<svg version="1.1" id="Layer_2" xmlns="http://www.w3.org/2000/svg" xmlns:xlink="http://www.w3.org/1999/xlink" x="0px" y="0px"
	 width="136px" height="128px" viewBox="0 0 136 128" enable-background="new 0 0 136 128" xml:space="preserve">
<g>
	<path d="M72,22L72,22c23.159,0,42,18.842,42,42c0,23.159-18.841,42-42,42h-8.001C40.841,106,22,87.159,22,64
		c0-23.159,18.841-42,42-42H72 M72,16h-8h0C37.49,16,16,37.49,16,64s21.49,48,47.999,48h0h8c26.511,0,48-21.49,48-48
		C120,37.491,98.511,16,72,16L72,16z"/>
</g>
</svg>
