<?xml version="1.0" encoding="utf-8"?>
<!-- Generator: Adobe Illustrator 16.0.0, SVG Export Plug-In . SVG Version: 6.00 Build 0)  -->
<!DOCTYPE svg PUBLIC "-//W3C//DTD SVG 1.1//EN" "http://www.w3.org/Graphics/SVG/1.1/DTD/svg11.dtd">
<svg version="1.1" id="Layer_2" xmlns="http://www.w3.org/2000/svg" xmlns:xlink="http://www.w3.org/1999/xlink" x="0px" y="0px"
	 width="136px" height="128px" viewBox="0 0 136 128" enable-background="new 0 0 136 128" xml:space="preserve">
<g>
	<path d="M105,23c4.411,0,8,3.589,8,8v66c0,4.411-3.589,8-8,8H31c-4.411,0-8-3.589-8-8V31c0-4.411,3.589-8,8-8H105 M105,15H31
		c-8.8,0-16,7.2-16,16v66c0,8.8,7.2,16,16,16h74c8.8,0,16-7.2,16-16V31C121,22.2,113.8,15,105,15L105,15z"/>
</g>
</svg>
