<?xml version="1.0" encoding="utf-8"?>
<!-- Generator: Adobe Illustrator 16.0.0, SVG Export Plug-In . SVG Version: 6.00 Build 0)  -->
<!DOCTYPE svg PUBLIC "-//W3C//DTD SVG 1.1//EN" "http://www.w3.org/Graphics/SVG/1.1/DTD/svg11.dtd">
<svg version="1.1" id="Layer_2" xmlns="http://www.w3.org/2000/svg" xmlns:xlink="http://www.w3.org/1999/xlink" x="0px" y="0px"
	 width="136px" height="128px" viewBox="0 0 136 128" enable-background="new 0 0 136 128" xml:space="preserve">
<g>
	<path d="M104,24c4.411,0,8,3.589,8,8v64c0,4.411-3.589,8-8,8H32c-4.411,0-8-3.589-8-8V32c0-4.411,3.589-8,8-8H104 M104,14H32
		c-9.9,0-18,8.1-18,18v64c0,9.9,8.1,18,18,18h72c9.9,0,18-8.1,18-18V32C122,22.1,113.9,14,104,14L104,14z"/>
</g>
</svg>
