<?xml version="1.0" encoding="utf-8"?>
<!-- Generator: Adobe Illustrator 16.0.0, SVG Export Plug-In . SVG Version: 6.00 Build 0)  -->
<!DOCTYPE svg PUBLIC "-//W3C//DTD SVG 1.1//EN" "http://www.w3.org/Graphics/SVG/1.1/DTD/svg11.dtd">
<svg version="1.1" id="Layer_2" xmlns="http://www.w3.org/2000/svg" xmlns:xlink="http://www.w3.org/1999/xlink" x="0px" y="0px"
	 width="96px" height="80px" viewBox="0 0 96 80" enable-background="new 0 0 96 80" xml:space="preserve">
<g>
	<path d="M56,22c9.925,0,18,8.075,18,18c0,9.925-8.075,18-18,18H40c-9.925,0-18-8.075-18-18c0-9.925,8.075-18,18-18H56 M56,16H40
		c-13.255,0-24,10.744-24,24c0,13.254,10.745,24,24,24h16c13.255,0,24-10.745,24-24C80,26.745,69.255,16,56,16L56,16z"/>
</g>
</svg>
