<?xml version="1.0" encoding="utf-8"?>
<!-- Generator: Adobe Illustrator 16.0.0, SVG Export Plug-In . SVG Version: 6.00 Build 0)  -->
<!DOCTYPE svg PUBLIC "-//W3C//DTD SVG 1.1//EN" "http://www.w3.org/Graphics/SVG/1.1/DTD/svg11.dtd">
<svg version="1.1" id="Layer_2" xmlns="http://www.w3.org/2000/svg" xmlns:xlink="http://www.w3.org/1999/xlink" x="0px" y="0px"
	 width="64px" height="64px" viewBox="0 0 64 64" enable-background="new 0 0 64 64" xml:space="preserve">
<g>
	<path d="M23.586,19.586c0.778,0.778,0.778,2.05,0,2.828l-1.172,1.172c-0.778,0.778-2.05,0.778-2.828,0l-7.172-7.172
		c-0.778-0.778-0.778-2.05,0-2.828l1.172-1.172c0.778-0.778,2.05-0.778,2.828,0L23.586,19.586z"/>
</g>
<polygon points="8,24 8,8 24,8 "/>
<g>
	<path d="M44.414,23.586c-0.777,0.778-2.051,0.778-2.828,0l-1.172-1.172c-0.777-0.778-0.777-2.05,0-2.828l7.172-7.172
		c0.777-0.778,2.051-0.778,2.828,0l1.172,1.172c0.777,0.778,0.777,2.05,0,2.828L44.414,23.586z"/>
</g>
<polygon points="40,8 56,8 56,24 "/>
<g>
	<path d="M40.414,44.414c-0.777-0.777-0.777-2.051,0-2.828l1.172-1.172c0.777-0.777,2.051-0.777,2.828,0l7.172,7.172
		c0.777,0.777,0.777,2.051,0,2.828l-1.172,1.172c-0.777,0.777-2.051,0.777-2.828,0L40.414,44.414z"/>
</g>
<polygon points="56,40 56,56 40,56 "/>
<g>
	<path d="M19.586,40.414c0.778-0.777,2.05-0.777,2.828,0l1.172,1.172c0.778,0.777,0.778,2.051,0,2.828l-7.172,7.172
		c-0.778,0.777-2.05,0.777-2.828,0l-1.172-1.172c-0.778-0.777-0.778-2.051,0-2.828L19.586,40.414z"/>
</g>
<polygon points="24,56 8,56 8,40 "/>
</svg>
