<?xml version="1.0" encoding="utf-8"?>
<!-- Generator: Adobe Illustrator 16.0.0, SVG Export Plug-In . SVG Version: 6.00 Build 0)  -->
<!DOCTYPE svg PUBLIC "-//W3C//DTD SVG 1.1//EN" "http://www.w3.org/Graphics/SVG/1.1/DTD/svg11.dtd">
<svg version="1.1" id="Layer_2" xmlns="http://www.w3.org/2000/svg" xmlns:xlink="http://www.w3.org/1999/xlink" x="0px" y="0px"
	 width="64px" height="64px" viewBox="0 0 64 64" enable-background="new 0 0 64 64" xml:space="preserve">
<path d="M51,16H13c-3.3,0-6,2.7-6,6v20c0,3.3,2.7,6,6,6h38c3.3,0,6-2.7,6-6V22C57,18.7,54.3,16,51,16z M30,41h-5v-6.5h-6V41h-5V23h5
	v6.5h6V23h5V41z M50,35c0,3.3-2.7,6-6,6H34V23h10c3.3,0,6,2.7,6,6V35z M41.5,27h-3v10h3c2.2,0,4-1.8,4-4v-2
	C45.5,28.8,43.7,27,41.5,27z"/>
</svg>
