<?xml version="1.0" encoding="utf-8"?>
<!-- Generator: Adobe Illustrator 16.0.0, SVG Export Plug-In . SVG Version: 6.00 Build 0)  -->
<!DOCTYPE svg PUBLIC "-//W3C//DTD SVG 1.1//EN" "http://www.w3.org/Graphics/SVG/1.1/DTD/svg11.dtd">
<svg version="1.1" id="Layer_2" xmlns="http://www.w3.org/2000/svg" xmlns:xlink="http://www.w3.org/1999/xlink" x="0px" y="0px"
	 width="64px" height="64px" viewBox="0 0 64 64" enable-background="new 0 0 64 64" xml:space="preserve">
<g>
	<path d="M53.086,49.086c0.777,0.777,0.777,2.051,0,2.828l-1.172,1.172c-0.777,0.777-2.051,0.777-2.828,0l-7.172-7.172
		c-0.777-0.777-0.777-2.051,0-2.828l1.172-1.172c0.777-0.777,2.051-0.777,2.828,0L53.086,49.086z"/>
</g>
<polygon points="37.5,53.5 37.5,37.5 53.5,37.5 "/>
<g>
	<path d="M14.914,53.086c-0.778,0.777-2.05,0.777-2.828,0l-1.172-1.172c-0.778-0.777-0.778-2.051,0-2.828l7.172-7.172
		c0.777-0.777,2.051-0.777,2.828,0l1.172,1.172c0.777,0.777,0.777,2.051,0,2.828L14.914,53.086z"/>
</g>
<polygon points="10.5,37.5 26.5,37.5 26.5,53.5 "/>
<g>
	<path d="M10.914,14.914c-0.778-0.777-0.778-2.051,0-2.828l1.172-1.172c0.778-0.778,2.05-0.778,2.828,0l7.172,7.172
		c0.777,0.777,0.777,2.051,0,2.828l-1.172,1.172c-0.777,0.777-2.051,0.777-2.828,0L10.914,14.914z"/>
</g>
<polygon points="26.5,10.5 26.5,26.5 10.5,26.5 "/>
<g>
	<path d="M49.086,10.914c0.777-0.778,2.051-0.778,2.828,0l1.172,1.172c0.777,0.778,0.777,2.05,0,2.828l-7.172,7.172
		c-0.777,0.778-2.051,0.778-2.828,0l-1.172-1.172c-0.777-0.778-0.777-2.05,0-2.828L49.086,10.914z"/>
</g>
<polygon points="53.5,26.5 37.5,26.5 37.5,10.5 "/>
</svg>
