<?xml version="1.0" encoding="utf-8"?>
<!-- Generator: Adobe Illustrator 16.0.0, SVG Export Plug-In . SVG Version: 6.00 Build 0)  -->
<!DOCTYPE svg PUBLIC "-//W3C//DTD SVG 1.1//EN" "http://www.w3.org/Graphics/SVG/1.1/DTD/svg11.dtd">
<svg version="1.1" id="Layer_2" xmlns="http://www.w3.org/2000/svg" xmlns:xlink="http://www.w3.org/1999/xlink" x="0px" y="0px"
	 width="512px" height="512px" viewBox="0 0 512 512" enable-background="new 0 0 512 512" xml:space="preserve">
<g>
	<path fill="#00B4FF" d="M36,504c-15.439,0-28-12.561-28-28V36C8,20.561,20.561,8,36,8h440c15.439,0,28,12.561,28,28v440
		c0,15.439-12.561,28-28,28H36z"/>
	<path fill="#161616" d="M476,16c11,0,20,9,20,20v440c0,11-9,20-20,20H36c-11,0-20-9-20-20V36c0-11,9-20,20-20H476 M476,0H36
		C16.149,0,0,16.149,0,36v440c0,19.851,16.149,36,36,36h440c19.851,0,36-16.149,36-36V36C512,16.149,495.851,0,476,0L476,0z"/>
</g>
<g>
	<g>
		<g>
			<path fill="#161616" d="M257.752,409c-37.14,0-66.202-8.846-86.378-26.291c-20.218-17.476-32.445-43.137-36.34-76.271
				c-0.157-1.334,0.23-2.676,1.073-3.722s2.071-1.708,3.408-1.839l48.091-4.687c0.433-0.042,0.868-0.063,1.302-0.063
				c6.403,0,12.418,4.377,14.303,10.407c2.065,6.6,9.08,25.146,16.63,31.62c9.333,8.006,22.285,12.064,38.494,12.064
				c17.264,0,30.296-3.58,38.734-10.64c8.289-6.936,12.319-14.713,12.319-23.775c0-5.606-1.563-10.208-4.778-14.068
				c-3.359-4.027-9.606-7.689-18.564-10.88c-6.532-2.267-21.907-6.426-45.659-12.347c-31.981-7.947-53.943-17.572-67.138-29.424
				c-18.536-16.653-27.934-37.271-27.934-61.281c0-15.488,4.43-30.158,13.167-43.603c8.749-13.469,21.481-23.848,37.843-30.848
				c16.056-6.87,35.609-10.354,58.118-10.354c36.882,0,65.195,8.356,84.15,24.836c19.105,16.614,29.275,39.03,30.229,66.625
				c0.095,2.742-2.037,5.047-4.777,5.168l-49.618,2.185c-0.196,0.009-0.395,0.013-0.592,0.013c-6.512,0-12.853-4.659-14.747-10.838
				c-1.385-4.491-6.213-17.137-11.845-21.61c-7.166-5.689-18.398-8.574-33.384-8.574c-15.581,0-27.819,3.157-36.373,9.384
				c-4.84,3.509-7.09,7.865-7.09,13.713c0,5.267,2.219,9.696,6.785,13.542c4.552,3.832,17.073,10.081,50.87,18.081
				c28.304,6.7,49.624,13.775,63.367,21.029c14.169,7.482,25.423,17.868,33.45,30.868c8.05,13.036,12.132,29.249,12.132,48.188
				c0,17.274-4.846,33.669-14.402,48.728c-9.601,15.125-23.336,26.509-40.827,33.835C304.616,405.357,283.078,409,257.752,409z"/>
			<path fill="#161616" d="M254.443,108c35.812,0,62.768,7.872,80.87,23.61c18.101,15.741,27.604,36.75,28.513,63.024l-49.618,2.185
				c-0.124,0.005-0.248,0.008-0.372,0.008c-4.283,0-8.713-3.216-9.967-7.304c0,0-5.408-17.621-13.516-24.06
				c-8.11-6.439-20.274-9.659-36.494-9.659c-16.738,0-29.846,3.448-39.315,10.342c-6.101,4.424-9.147,10.341-9.147,17.756
				c0,6.766,2.852,12.555,8.564,17.366c7.265,6.116,24.913,12.488,52.939,19.122c28.026,6.634,48.755,13.497,62.185,20.585
				c13.43,7.092,23.939,16.78,31.53,29.073S372,297.53,372,315.609c0,16.391-4.544,31.741-13.624,46.049
				c-9.084,14.312-21.929,24.945-38.537,31.902C303.229,400.518,282.534,404,257.752,404c-36.074,0-63.775-8.357-83.107-25.073
				c-19.336-16.713-30.883-41.073-34.645-73.073l48.091-4.687c0.271-0.026,0.544-0.039,0.817-0.039c4.127-0.001,8.3,2.96,9.53,6.898
				c0,0,7.833,25.08,18.148,33.925c10.315,8.848,24.231,13.269,41.749,13.269c18.554,0,32.533-3.933,41.942-11.805
				c9.406-7.87,14.111-17.073,14.111-27.61c0-6.762-1.979-12.518-5.937-17.269c-3.96-4.747-10.869-8.878-20.729-12.39
				c-6.748-2.342-22.123-6.504-46.127-12.488c-30.882-7.674-52.55-17.104-65.006-28.292c-17.517-15.737-26.275-34.927-26.275-57.561
				c0-14.566,4.117-28.195,12.359-40.878c8.238-12.683,20.111-22.341,35.618-28.976C213.795,111.317,232.513,108,254.443,108
				 M254.443,98c-23.188,0-43.404,3.619-60.085,10.758c-17.289,7.396-30.771,18.406-40.07,32.722
				c-9.271,14.268-13.973,29.854-13.973,46.325c0,25.49,9.957,47.359,29.592,65c13.819,12.413,36.479,22.408,69.278,30.559
				c23.555,5.872,38.772,9.983,45.224,12.218c10.065,3.59,14.455,7.071,16.365,9.36c2.431,2.92,3.615,6.475,3.615,10.863
				c0,7.49-3.444,14.014-10.528,19.94c-7.514,6.287-19.467,9.475-35.525,9.475c-14.981,0-26.837-3.653-35.238-10.859
				c-5.584-4.788-12.2-20.028-15.115-29.321c-2.518-8.059-10.54-13.911-19.073-13.911c-0.596,0-1.197,0.028-1.787,0.086
				L139.03,295.9c-2.674,0.261-5.131,1.586-6.816,3.679c-1.686,2.092-2.459,4.773-2.146,7.442
				c4.045,34.414,16.843,61.152,38.037,79.471C189.214,404.745,219.376,414,257.752,414c25.992,0,48.182-3.773,65.95-11.216
				c18.452-7.729,32.958-19.763,43.117-35.767C376.893,351.144,382,333.848,382,315.609c0-19.88-4.332-36.977-12.877-50.814
				c-8.503-13.77-20.402-24.759-35.369-32.662c-14.317-7.557-35.432-14.581-64.551-21.474
				c-34.571-8.184-45.416-14.189-48.803-17.041c-3.46-2.915-5.004-5.911-5.004-9.716c0-4.221,1.5-7.11,5.018-9.66
				c7.696-5.603,18.943-8.438,33.445-8.438c13.829,0,24.015,2.52,30.276,7.491c3.837,3.047,8.341,13.242,10.177,19.173
				c2.55,8.314,10.763,14.359,19.523,14.359c0.271,0,0.542-0.006,0.812-0.018l49.618-2.185c5.481-0.241,9.744-4.853,9.555-10.335
				c-1.004-29.038-11.752-52.665-31.944-70.225C321.981,106.769,292.565,98,254.443,98L254.443,98z"/>
		</g>
	</g>
</g>
<g>
	<g>
		<g>
			<path fill="#FFFFFF" d="M140,305.854l48.091-4.687c4.379-0.427,9.036,2.66,10.348,6.859c0,0,7.833,25.08,18.148,33.925
				c10.315,8.848,24.231,13.269,41.749,13.269c18.554,0,32.533-3.933,41.942-11.805c9.406-7.87,14.111-17.073,14.111-27.61
				c0-6.762-1.979-12.518-5.937-17.269c-3.96-4.747-10.869-8.878-20.729-12.39c-6.748-2.342-22.123-6.504-46.127-12.488
				c-30.882-7.674-52.55-17.104-65.006-28.292c-17.517-15.737-26.275-34.927-26.275-57.561c0-14.566,4.117-28.195,12.359-40.878
				c8.238-12.683,20.111-22.341,35.618-28.976c15.503-6.634,34.221-9.951,56.151-9.951c35.812,0,62.768,7.872,80.87,23.61
				c18.101,15.741,27.604,36.75,28.513,63.024l-49.618,2.185c-4.396,0.194-9.049-3.089-10.339-7.296c0,0-5.408-17.621-13.516-24.06
				c-8.11-6.439-20.274-9.659-36.494-9.659c-16.738,0-29.846,3.448-39.315,10.342c-6.101,4.424-9.147,10.341-9.147,17.756
				c0,6.765,2.852,12.555,8.564,17.366c7.265,6.116,24.913,12.488,52.939,19.122c28.026,6.634,48.755,13.497,62.185,20.585
				c13.43,7.092,23.939,16.78,31.53,29.073S372,297.53,372,315.609c0,16.391-4.544,31.741-13.624,46.049
				c-9.084,14.312-21.929,24.945-38.537,31.902C303.229,400.518,282.534,404,257.752,404c-36.074,0-63.775-8.357-83.107-25.073
				C155.309,362.214,143.762,337.854,140,305.854z"/>
			<path fill="none" stroke="#161616" stroke-width="2" stroke-linejoin="round" stroke-miterlimit="10" d="M140,305.854
				l48.091-4.687c4.379-0.427,9.036,2.66,10.348,6.859c0,0,7.833,25.08,18.148,33.925c10.315,8.848,24.231,13.269,41.749,13.269
				c18.554,0,32.533-3.933,41.942-11.805c9.406-7.87,14.111-17.073,14.111-27.61c0-6.762-1.979-12.518-5.937-17.269
				c-3.96-4.747-10.869-8.878-20.729-12.39c-6.748-2.342-22.123-6.504-46.127-12.488c-30.882-7.674-52.55-17.104-65.006-28.292
				c-17.517-15.737-26.275-34.927-26.275-57.561c0-14.566,4.117-28.195,12.359-40.878c8.238-12.683,20.111-22.341,35.618-28.976
				c15.503-6.634,34.221-9.951,56.151-9.951c35.812,0,62.768,7.872,80.87,23.61c18.101,15.741,27.604,36.75,28.513,63.024
				l-49.618,2.185c-4.396,0.194-9.049-3.089-10.339-7.296c0,0-5.408-17.621-13.516-24.06c-8.11-6.439-20.274-9.659-36.494-9.659
				c-16.738,0-29.846,3.448-39.315,10.342c-6.101,4.424-9.147,10.341-9.147,17.756c0,6.765,2.852,12.555,8.564,17.366
				c7.265,6.116,24.913,12.488,52.939,19.122c28.026,6.634,48.755,13.497,62.185,20.585c13.43,7.092,23.939,16.78,31.53,29.073
				S372,297.53,372,315.609c0,16.391-4.544,31.741-13.624,46.049c-9.084,14.312-21.929,24.945-38.537,31.902
				C303.229,400.518,282.534,404,257.752,404c-36.074,0-63.775-8.357-83.107-25.073C155.309,362.214,143.762,337.854,140,305.854z"
				/>
		</g>
	</g>
</g>
</svg>
