<?xml version="1.0" encoding="utf-8"?>
<!-- Generator: Adobe Illustrator 16.0.0, SVG Export Plug-In . SVG Version: 6.00 Build 0)  -->
<!DOCTYPE svg PUBLIC "-//W3C//DTD SVG 1.1//EN" "http://www.w3.org/Graphics/SVG/1.1/DTD/svg11.dtd">
<svg version="1.1" id="Layer_2" xmlns="http://www.w3.org/2000/svg" xmlns:xlink="http://www.w3.org/1999/xlink" x="0px" y="0px"
	 width="64px" height="64px" viewBox="0 0 64 64" enable-background="new 0 0 64 64" xml:space="preserve">
<path d="M26.5,41.37c0.91,0.74,1.5,1.86,1.5,3.13c0,2.21-1.79,4-4,4c-0.95,0-1.82-0.33-2.5-0.88C16.73,43.8,14,38.1,14,32
	c0-6.1,2.73-11.8,7.5-15.62c0.68-0.55,1.55-0.88,2.5-0.88c2.21,0,4,1.79,4,4c0,1.27-0.59,2.39-1.5,3.13C23.64,24.92,22,28.34,22,32
	S23.64,39.08,26.5,41.37z"/>
</svg>
