<?xml version="1.0" encoding="utf-8"?>
<!-- Generator: Adobe Illustrator 16.0.0, SVG Export Plug-In . SVG Version: 6.00 Build 0)  -->
<!DOCTYPE svg PUBLIC "-//W3C//DTD SVG 1.1//EN" "http://www.w3.org/Graphics/SVG/1.1/DTD/svg11.dtd">
<svg version="1.1" id="Layer_2" xmlns="http://www.w3.org/2000/svg" xmlns:xlink="http://www.w3.org/1999/xlink" x="0px" y="0px"
	 width="512px" height="512px" viewBox="0 0 512 512" enable-background="new 0 0 512 512" xml:space="preserve">
<g>
	<path fill="#FFFFFF" d="M36,504c-15.439,0-28-12.561-28-28V36C8,20.561,20.561,8,36,8h440c15.439,0,28,12.561,28,28v440
		c0,15.439-12.561,28-28,28H36z"/>
	<path fill="#FFFFFF" d="M476,16c11,0,20,9,20,20v440c0,11-9,20-20,20H36c-11,0-20-9-20-20V36c0-11,9-20,20-20H476 M476,0H36
		C16.149,0,0,16.149,0,36v440c0,19.851,16.149,36,36,36h440c19.851,0,36-16.149,36-36V36C512,16.149,495.851,0,476,0L476,0z"/>
</g>
</svg>
